<mxfile host="app.diagrams.net" modified="2024-05-27T15:48:54.561Z" agent="Mozilla/5.0 (Windows NT 10.0; Win64; x64) AppleWebKit/537.36 (KHTML, like Gecko) Chrome/125.0.0.0 Safari/537.36" etag="uW11PsN8zJuJFcvdchn2" version="24.4.9" type="github">
  <diagram name="第 1 页" id="JOFmdDjUoj3oeklZM15o">
    <mxGraphModel dx="478" dy="263" grid="1" gridSize="10" guides="1" tooltips="1" connect="1" arrows="1" fold="1" page="1" pageScale="1" pageWidth="827" pageHeight="1169" math="0" shadow="0">
      <root>
        <mxCell id="0" />
        <mxCell id="1" parent="0" />
        <mxCell id="ZKubR5JttQIZ2X8n6Gh2-9" value="" style="edgeStyle=orthogonalEdgeStyle;rounded=0;orthogonalLoop=1;jettySize=auto;html=1;" edge="1" parent="1" source="ZKubR5JttQIZ2X8n6Gh2-1" target="ZKubR5JttQIZ2X8n6Gh2-3">
          <mxGeometry relative="1" as="geometry" />
        </mxCell>
        <mxCell id="ZKubR5JttQIZ2X8n6Gh2-1" value="&lt;h2 style=&quot;font-size: 18px;&quot;&gt;系统登陆&lt;/h2&gt;" style="rounded=0;whiteSpace=wrap;html=1;fontFamily=Times New Roman;fontSize=18;" vertex="1" parent="1">
          <mxGeometry x="340" y="180" width="120" height="60" as="geometry" />
        </mxCell>
        <mxCell id="ZKubR5JttQIZ2X8n6Gh2-2" value="&lt;h2&gt;返回错误信息&lt;/h2&gt;" style="rounded=0;whiteSpace=wrap;html=1;" vertex="1" parent="1">
          <mxGeometry x="120" y="300" width="120" height="60" as="geometry" />
        </mxCell>
        <mxCell id="ZKubR5JttQIZ2X8n6Gh2-10" value="" style="edgeStyle=orthogonalEdgeStyle;rounded=0;orthogonalLoop=1;jettySize=auto;html=1;" edge="1" parent="1" source="ZKubR5JttQIZ2X8n6Gh2-3" target="ZKubR5JttQIZ2X8n6Gh2-4">
          <mxGeometry relative="1" as="geometry" />
        </mxCell>
        <mxCell id="ZKubR5JttQIZ2X8n6Gh2-18" value="是" style="edgeLabel;html=1;align=center;verticalAlign=middle;resizable=0;points=[];" vertex="1" connectable="0" parent="ZKubR5JttQIZ2X8n6Gh2-10">
          <mxGeometry x="-0.2111" y="1" relative="1" as="geometry">
            <mxPoint as="offset" />
          </mxGeometry>
        </mxCell>
        <mxCell id="ZKubR5JttQIZ2X8n6Gh2-15" value="" style="edgeStyle=orthogonalEdgeStyle;rounded=0;orthogonalLoop=1;jettySize=auto;html=1;" edge="1" parent="1" source="ZKubR5JttQIZ2X8n6Gh2-3" target="ZKubR5JttQIZ2X8n6Gh2-2">
          <mxGeometry relative="1" as="geometry" />
        </mxCell>
        <mxCell id="ZKubR5JttQIZ2X8n6Gh2-17" value="否" style="edgeLabel;html=1;align=center;verticalAlign=middle;resizable=0;points=[];" vertex="1" connectable="0" parent="ZKubR5JttQIZ2X8n6Gh2-15">
          <mxGeometry x="-0.15" relative="1" as="geometry">
            <mxPoint as="offset" />
          </mxGeometry>
        </mxCell>
        <mxCell id="ZKubR5JttQIZ2X8n6Gh2-3" value="&lt;h2&gt;验证信息正确性&lt;/h2&gt;" style="rhombus;whiteSpace=wrap;html=1;" vertex="1" parent="1">
          <mxGeometry x="320" y="290" width="160" height="80" as="geometry" />
        </mxCell>
        <mxCell id="ZKubR5JttQIZ2X8n6Gh2-11" value="" style="edgeStyle=orthogonalEdgeStyle;rounded=0;orthogonalLoop=1;jettySize=auto;html=1;" edge="1" parent="1" source="ZKubR5JttQIZ2X8n6Gh2-4" target="ZKubR5JttQIZ2X8n6Gh2-7">
          <mxGeometry relative="1" as="geometry" />
        </mxCell>
        <mxCell id="ZKubR5JttQIZ2X8n6Gh2-20" value="图书馆管理员" style="edgeLabel;html=1;align=center;verticalAlign=middle;resizable=0;points=[];" vertex="1" connectable="0" parent="ZKubR5JttQIZ2X8n6Gh2-11">
          <mxGeometry x="-0.0973" y="-1" relative="1" as="geometry">
            <mxPoint as="offset" />
          </mxGeometry>
        </mxCell>
        <mxCell id="ZKubR5JttQIZ2X8n6Gh2-12" style="edgeStyle=orthogonalEdgeStyle;rounded=0;orthogonalLoop=1;jettySize=auto;html=1;exitX=0.5;exitY=1;exitDx=0;exitDy=0;entryX=0.523;entryY=-0.055;entryDx=0;entryDy=0;entryPerimeter=0;" edge="1" parent="1" target="ZKubR5JttQIZ2X8n6Gh2-6">
          <mxGeometry relative="1" as="geometry">
            <mxPoint x="319.97" y="470" as="sourcePoint" />
            <mxPoint x="99.97" y="530" as="targetPoint" />
          </mxGeometry>
        </mxCell>
        <mxCell id="ZKubR5JttQIZ2X8n6Gh2-19" value="普通用户" style="edgeLabel;html=1;align=center;verticalAlign=middle;resizable=0;points=[];" vertex="1" connectable="0" parent="ZKubR5JttQIZ2X8n6Gh2-12">
          <mxGeometry x="-0.3767" relative="1" as="geometry">
            <mxPoint as="offset" />
          </mxGeometry>
        </mxCell>
        <mxCell id="ZKubR5JttQIZ2X8n6Gh2-14" style="edgeStyle=orthogonalEdgeStyle;rounded=0;orthogonalLoop=1;jettySize=auto;html=1;exitX=1;exitY=0.5;exitDx=0;exitDy=0;" edge="1" parent="1" source="ZKubR5JttQIZ2X8n6Gh2-4" target="ZKubR5JttQIZ2X8n6Gh2-8">
          <mxGeometry relative="1" as="geometry">
            <mxPoint x="400" y="540" as="sourcePoint" />
          </mxGeometry>
        </mxCell>
        <mxCell id="ZKubR5JttQIZ2X8n6Gh2-21" value="系统管理员" style="edgeLabel;html=1;align=center;verticalAlign=middle;resizable=0;points=[];" vertex="1" connectable="0" parent="ZKubR5JttQIZ2X8n6Gh2-14">
          <mxGeometry x="-0.3972" relative="1" as="geometry">
            <mxPoint as="offset" />
          </mxGeometry>
        </mxCell>
        <mxCell id="ZKubR5JttQIZ2X8n6Gh2-4" value="&lt;h2&gt;识别用户类型&lt;/h2&gt;" style="rhombus;whiteSpace=wrap;html=1;" vertex="1" parent="1">
          <mxGeometry x="320" y="430" width="160" height="80" as="geometry" />
        </mxCell>
        <mxCell id="ZKubR5JttQIZ2X8n6Gh2-6" value="&lt;h2&gt;普通用户主界面&lt;/h2&gt;" style="whiteSpace=wrap;html=1;" vertex="1" parent="1">
          <mxGeometry x="120" y="570" width="120" height="60" as="geometry" />
        </mxCell>
        <mxCell id="ZKubR5JttQIZ2X8n6Gh2-7" value="&lt;h2&gt;图书馆管理员主界面&lt;/h2&gt;" style="whiteSpace=wrap;html=1;" vertex="1" parent="1">
          <mxGeometry x="340" y="570" width="120" height="60" as="geometry" />
        </mxCell>
        <mxCell id="ZKubR5JttQIZ2X8n6Gh2-8" value="&lt;h2&gt;系统管理员主界面&lt;/h2&gt;" style="whiteSpace=wrap;html=1;" vertex="1" parent="1">
          <mxGeometry x="560" y="570" width="120" height="60" as="geometry" />
        </mxCell>
        <mxCell id="ZKubR5JttQIZ2X8n6Gh2-16" style="edgeStyle=orthogonalEdgeStyle;rounded=0;orthogonalLoop=1;jettySize=auto;html=1;entryX=0;entryY=0.333;entryDx=0;entryDy=0;entryPerimeter=0;exitX=0.5;exitY=0;exitDx=0;exitDy=0;" edge="1" parent="1" source="ZKubR5JttQIZ2X8n6Gh2-2" target="ZKubR5JttQIZ2X8n6Gh2-1">
          <mxGeometry relative="1" as="geometry" />
        </mxCell>
      </root>
    </mxGraphModel>
  </diagram>
</mxfile>
